<svg width="810.5749999999999px" height="131.36000366210936px" xmlns="http://www.w3.org/2000/svg" viewBox="-155.28749999999997 9.319998168945318 810.5749999999999 131.36000366210936" style="background: rgba(0, 0, 0, 0);" preserveAspectRatio="xMidYMid"><defs><filter id="editing-metal-beveled"><feGaussianBlur stdDeviation="4" in="SourceAlpha" result="blur"></feGaussianBlur><feSpecularLighting surfaceScale="5" specularConstant="0.8" specularExponent="7.5" lighting-color="#ffffff" in="blur" result="specular"><fePointLight x="-250" y="-50" z="300"></fePointLight></feSpecularLighting><feComposite operator="in" in="specular" in2="SourceAlpha" result="comp"></feComposite><feComposite in="SourceGraphic" in2="comp" operator="arithmetic" k1="0" k2="1" k3="1" k4="0"></feComposite></filter></defs><g filter="url(#editing-metal-beveled)"><g transform="translate(-41.88998794555664, 98.04205894470215)"><path d="M47.78-13.19L47.78-13.19L47.78-13.19Q47.78-10.78 47.17-8.86L47.17-8.86L47.17-8.86Q46.56-6.94 45.56-5.47L45.56-5.47L45.56-5.47Q44.56-4 43.22-2.97L43.22-2.97L43.22-2.97Q41.88-1.94 40.44-1.28L40.44-1.28L40.44-1.28Q39-0.63 37.52-0.31L37.52-0.31L37.52-0.31Q36.03 0 34.72 0L34.72 0L3.38 0L3.38-8.13L34.72-8.13L34.72-8.13Q37.06-8.13 38.36-9.50L38.36-9.50L38.36-9.50Q39.66-10.88 39.66-13.19L39.66-13.19L39.66-13.19Q39.66-14.31 39.31-15.25L39.31-15.25L39.31-15.25Q38.97-16.19 38.33-16.88L38.33-16.88L38.33-16.88Q37.69-17.56 36.77-17.94L36.77-17.94L36.77-17.94Q35.84-18.31 34.72-18.31L34.72-18.31L16.03-18.31L16.03-18.31Q14.06-18.31 11.78-19.02L11.78-19.02L11.78-19.02Q9.50-19.72 7.55-21.28L7.55-21.28L7.55-21.28Q5.59-22.84 4.30-25.38L4.30-25.38L4.30-25.38Q3-27.91 3-31.56L3-31.56L3-31.56Q3-35.22 4.30-37.73L4.30-37.73L4.30-37.73Q5.59-40.25 7.55-41.83L7.55-41.83L7.55-41.83Q9.50-43.41 11.78-44.11L11.78-44.11L11.78-44.11Q14.06-44.81 16.03-44.81L16.03-44.81L43.69-44.81L43.69-36.69L16.03-36.69L16.03-36.69Q13.72-36.69 12.42-35.28L12.42-35.28L12.42-35.28Q11.13-33.88 11.13-31.56L11.13-31.56L11.13-31.56Q11.13-29.22 12.42-27.86L12.42-27.86L12.42-27.86Q13.72-26.50 16.03-26.50L16.03-26.50L34.72-26.50L34.78-26.50L34.78-26.50Q36.09-26.47 37.56-26.14L37.56-26.14L37.56-26.14Q39.03-25.81 40.48-25.13L40.48-25.13L40.48-25.13Q41.94-24.44 43.25-23.39L43.25-23.39L43.25-23.39Q44.56-22.34 45.58-20.88L45.58-20.88L45.58-20.88Q46.59-19.41 47.19-17.50L47.19-17.50L47.19-17.50Q47.78-15.59 47.78-13.19ZM94.56-44.81L94.56-36.69L76.66-36.69L76.66 0L68.53 0L68.53-36.69L50.59-36.69L50.59-44.81L94.56-44.81ZM142.94-40.72L142.94 0L134.81 0L134.81-11L106.25-11L106.25 0L98.13 0L98.13-22.41L98.13-22.41Q98.13-27.31 99.81-31.44L99.81-31.44L99.81-31.44Q101.50-35.56 104.50-38.53L104.50-38.53L104.50-38.53Q107.50-41.50 111.59-43.16L111.59-43.16L111.59-43.16Q115.69-44.81 120.53-44.81L120.53-44.81L138.84-44.81L138.84-44.81Q139.69-44.81 140.44-44.50L140.44-44.50L140.44-44.50Q141.19-44.19 141.75-43.63L141.75-43.63L141.75-43.63Q142.31-43.06 142.63-42.31L142.63-42.31L142.63-42.31Q142.94-41.56 142.94-40.72L142.94-40.72ZM106.25-22.41L106.25-19.13L134.81-19.13L134.81-36.69L120.53-36.69L120.53-36.69Q120.16-36.69 118.95-36.58L118.95-36.58L118.95-36.58Q117.75-36.47 116.17-36.03L116.17-36.03L116.17-36.03Q114.59-35.59 112.84-34.69L112.84-34.69L112.84-34.69Q111.09-33.78 109.63-32.19L109.63-32.19L109.63-32.19Q108.16-30.59 107.20-28.20L107.20-28.20L107.20-28.20Q106.25-25.81 106.25-22.41L106.25-22.41ZM197.16-34.94L197.16-29.75L197.16-29.75Q197.16-26.97 196.47-24.78L196.47-24.78L196.47-24.78Q195.78-22.59 194.61-20.92L194.61-20.92L194.61-20.92Q193.44-19.25 191.91-18.06L191.91-18.06L191.91-18.06Q190.38-16.88 188.70-16.11L188.70-16.11L188.70-16.11Q187.03-15.34 185.33-15L185.33-15L185.33-15Q183.63-14.66 182.13-14.66L182.13-14.66L199.09 0L186.53 0L169.59-14.66L163.75-14.66L163.75-22.78L182.13-22.78L182.13-22.78Q183.66-22.91 184.92-23.42L184.92-23.42L184.92-23.42Q186.19-23.94 187.11-24.81L187.11-24.81L187.11-24.81Q188.03-25.69 188.53-26.92L188.53-26.92L188.53-26.92Q189.03-28.16 189.03-29.75L189.03-29.75L189.03-34.88L189.03-34.88Q189.03-35.56 188.86-35.92L188.86-35.92L188.86-35.92Q188.69-36.28 188.42-36.45L188.42-36.45L188.42-36.45Q188.16-36.63 187.86-36.66L187.86-36.66L187.86-36.66Q187.56-36.69 187.31-36.69L187.31-36.69L160.50-36.69L160.50 0L152.38 0L152.38-40.72L152.38-40.72Q152.38-41.56 152.69-42.31L152.69-42.31L152.69-42.31Q153-43.06 153.55-43.63L153.55-43.63L153.55-43.63Q154.09-44.19 154.84-44.50L154.84-44.50L154.84-44.50Q155.59-44.81 156.47-44.81L156.47-44.81L187.31-44.81L187.31-44.81Q190.03-44.81 191.91-43.83L191.91-43.83L191.91-43.83Q193.78-42.84 194.95-41.36L194.95-41.36L194.95-41.36Q196.13-39.88 196.64-38.16L196.64-38.16L196.64-38.16Q197.16-36.44 197.16-34.94L197.16-34.94ZM245.47-44.81L245.47-36.69L227.56-36.69L227.56 0L219.44 0L219.44-36.69L201.50-36.69L201.50-44.81L245.47-44.81ZM324.41-41.34L324.41 0L316.22 0L316.22-26.69L301.81-1.34L301.81-1.34Q301.28-0.38 300.33 0.13L300.33 0.13L300.33 0.13Q299.38 0.63 298.28 0.63L298.28 0.63L298.28 0.63Q297.22 0.63 296.30 0.13L296.30 0.13L296.30 0.13Q295.38-0.38 294.84-1.34L294.84-1.34L280.38-26.69L280.38 0L272.25 0L272.25-41.34L272.25-41.34Q272.25-42.75 273.08-43.84L273.08-43.84L273.08-43.84Q273.91-44.94 275.25-45.31L275.25-45.31L275.25-45.31Q275.91-45.47 276.56-45.42L276.56-45.42L276.56-45.42Q277.22-45.38 277.83-45.14L277.83-45.14L277.83-45.14Q278.44-44.91 278.94-44.48L278.94-44.48L278.94-44.48Q279.44-44.06 279.78-43.47L279.78-43.47L298.28-11.31L316.78-43.47L316.78-43.47Q317.50-44.66 318.77-45.16L318.77-45.16L318.77-45.16Q320.03-45.66 321.41-45.31L321.41-45.31L321.41-45.31Q322.72-44.94 323.56-43.84L323.56-43.84L323.56-43.84Q324.41-42.75 324.41-41.34L324.41-41.34ZM377.81-40.72L377.81 0L369.69 0L369.69-11L341.13-11L341.13 0L333 0L333-22.41L333-22.41Q333-27.31 334.69-31.44L334.69-31.44L334.69-31.44Q336.38-35.56 339.38-38.53L339.38-38.53L339.38-38.53Q342.38-41.50 346.47-43.16L346.47-43.16L346.47-43.16Q350.56-44.81 355.41-44.81L355.41-44.81L373.72-44.81L373.72-44.81Q374.56-44.81 375.31-44.50L375.31-44.50L375.31-44.50Q376.06-44.19 376.63-43.63L376.63-43.63L376.63-43.63Q377.19-43.06 377.50-42.31L377.50-42.31L377.50-42.31Q377.81-41.56 377.81-40.72L377.81-40.72ZM341.13-22.41L341.13-19.13L369.69-19.13L369.69-36.69L355.41-36.69L355.41-36.69Q355.03-36.69 353.83-36.58L353.83-36.58L353.83-36.58Q352.63-36.47 351.05-36.03L351.05-36.03L351.05-36.03Q349.47-35.59 347.72-34.69L347.72-34.69L347.72-34.69Q345.97-33.78 344.50-32.19L344.50-32.19L344.50-32.19Q343.03-30.59 342.08-28.20L342.08-28.20L342.08-28.20Q341.13-25.81 341.13-22.41L341.13-22.41ZM432.03-34.94L432.03-29.75L432.03-29.75Q432.03-26.97 431.34-24.78L431.34-24.78L431.34-24.78Q430.66-22.59 429.48-20.92L429.48-20.92L429.48-20.92Q428.31-19.25 426.78-18.06L426.78-18.06L426.78-18.06Q425.25-16.88 423.58-16.11L423.58-16.11L423.58-16.11Q421.91-15.34 420.20-15L420.20-15L420.20-15Q418.50-14.66 417-14.66L417-14.66L433.97 0L421.41 0L404.47-14.66L398.63-14.66L398.63-22.78L417-22.78L417-22.78Q418.53-22.91 419.80-23.42L419.80-23.42L419.80-23.42Q421.06-23.94 421.98-24.81L421.98-24.81L421.98-24.81Q422.91-25.69 423.41-26.92L423.41-26.92L423.41-26.92Q423.91-28.16 423.91-29.75L423.91-29.75L423.91-34.88L423.91-34.88Q423.91-35.56 423.73-35.92L423.73-35.92L423.73-35.92Q423.56-36.28 423.30-36.45L423.30-36.45L423.30-36.45Q423.03-36.63 422.73-36.66L422.73-36.66L422.73-36.66Q422.44-36.69 422.19-36.69L422.19-36.69L395.38-36.69L395.38 0L387.25 0L387.25-40.72L387.25-40.72Q387.25-41.56 387.56-42.31L387.56-42.31L387.56-42.31Q387.88-43.06 388.42-43.63L388.42-43.63L388.42-43.63Q388.97-44.19 389.72-44.50L389.72-44.50L389.72-44.50Q390.47-44.81 391.34-44.81L391.34-44.81L422.19-44.81L422.19-44.81Q424.91-44.81 426.78-43.83L426.78-43.83L426.78-43.83Q428.66-42.84 429.83-41.36L429.83-41.36L429.83-41.36Q431-39.88 431.52-38.16L431.52-38.16L431.52-38.16Q432.03-36.44 432.03-34.94L432.03-34.94ZM464.13-22.41L487.16 0L475.63 0L457.34-18.31L451.63-18.31L451.63-26.50L457.34-26.50L475.63-44.81L487.16-44.81L464.13-22.41ZM448.38-44.81L448.38 0L440.25 0L440.25-44.81L448.38-44.81ZM528.78-26.50L528.78-18.31L503.13-18.31L503.13-26.50L528.78-26.50ZM532.44-8.13L532.44 0L503.13 0L503.13 0Q501.44 0 499.44-0.59L499.44-0.59L499.44-0.59Q497.44-1.19 495.73-2.55L495.73-2.55L495.73-2.55Q494.03-3.91 492.89-6.08L492.89-6.08L492.89-6.08Q491.75-8.25 491.75-11.41L491.75-11.41L491.75-40.72L491.75-40.72Q491.75-41.56 492.06-42.31L492.06-42.31L492.06-42.31Q492.38-43.06 492.92-43.63L492.92-43.63L492.92-43.63Q493.47-44.19 494.22-44.50L494.22-44.50L494.22-44.50Q494.97-44.81 495.84-44.81L495.84-44.81L532.44-44.81L532.44-36.69L499.88-36.69L499.88-11.41L499.88-11.41Q499.88-9.81 500.72-8.97L500.72-8.97L500.72-8.97Q501.56-8.13 503.19-8.13L503.19-8.13L532.44-8.13ZM580.78-44.81L580.78-36.69L562.88-36.69L562.88 0L554.75 0L554.75-36.69L536.81-36.69L536.81-44.81L580.78-44.81Z" fill="#ffffff"></path></g></g><style>text {
  font-size: 64px;
  font-family: Arial Black;
  dominant-baseline: central;
  text-anchor: middle;
}</style></svg>